# xmcd CD database file
#
# Track frame offsets:
#	182
#	37920
#	58482
#	82680
#	112165
#	133380
#	178072
#	197982
#	242125
#
# Disc length: 3483 seconds
#
# Revision: 1
# Processed by: cddbd v1.5.2PL0 Copyright (c) Steve Scherf et al.
# Submitted via: CDex 1.51
#
DISCID=840d9909
DTITLE=Colin Dunwoodie Quartet - Glad To See You
DYEAR=1993
DGENRE=Jazz
TTITLE0=Think It Over
TTITLE1=Afro Blue
TTITLE2=Tact
TTITLE3=Four Bars Shorter
TTITLE4=Once Again
TTITLE5=Lonnie's Lament
TTITLE6=Just A Piece Of Cake
TTITLE7=Glad To See You
TTITLE8=Bop Or Not To Be
EXTD=YEAR: 1993
EXTT0=
EXTT1=
EXTT2=
EXTT3=
EXTT4=
EXTT5=
EXTT6=
EXTT7=
EXTT8=
PLAYORDER=
